<svg viewBox="0 0 12 12" width="60px" height="60px" xmlns="http://www.w3.org/2000/svg"><path fill-rule="evenodd" d="M 2,0 9,0 9,1 10,1 10,4 11,4 11,7 10,7 10,11 1,11 1,7 0,7 0,4 1,4 1,1 2,1z" fill="#F5498B"/><path fill-rule="evenodd" d="M 3,1 4,1 4,3 2,3 2,2 3,2z" fill="#ffffff"/><path fill-rule="evenodd" d="M 5,1 6,1 6,3 5,3z" fill="#ffffff"/><path fill-rule="evenodd" d="M 7,1 8,1 8,2 9,2 9,3 7,3z" fill="#ffffff"/><path fill-rule="evenodd" d="M 2,4 4,4 4,5 2,5z" fill="#ffffff"/><path fill-rule="evenodd" d="M 5,4 6,4 6,5 5,5z" fill="#ffffff"/><path fill-rule="evenodd" d="M 7,4 9,4 9,5 7,5z" fill="#ffffff"/><path fill-rule="evenodd" d="M 1,5 2,5 2,6 1,6z" fill="#ffffff"/><path fill-rule="evenodd" d="M 4,5 5,5 5,6 4,6z" fill="#ffffff"/><path fill-rule="evenodd" d="M 6,5 7,5 7,6 6,6z" fill="#ffffff"/><path fill-rule="evenodd" d="M 9,5 10,5 10,6 9,6z" fill="#ffffff"/><path fill-rule="evenodd" d="M 2,6 3,6 3,7 2,7z" fill="#ffffff"/><path fill-rule="evenodd" d="M 8,6 9,6 9,7 8,7z" fill="#ffffff"/><path fill-rule="evenodd" d="M 3,7 5,7 5,10 4,10 4,8 3,8z" fill="#ffffff"/><path fill-rule="evenodd" d="M 6,7 8,7 8,8 7,8 7,10 6,10z" fill="#ffffff"/><path fill-rule="evenodd" d="M 2,9 3,9 3,10 2,10z" fill="#ffffff"/><path fill-rule="evenodd" d="M 8,9 9,9 9,10 8,10z" fill="#ffffff"/></svg>